<svg width="74" height="47" viewBox="0 0 74 47" fill="none" xmlns="http://www.w3.org/2000/svg">
<path d="M60.7325 15.8665C60.531 15.9937 60.4378 16.0833 60.3273 16.1177C59.0741 16.5084 57.6099 17.4661 56.6236 17.1088C55.6841 16.7683 55.2906 15.0212 54.5746 13.9478C49.9334 6.99076 43.8271 4.10386 35.5802 5.42246C30.2437 6.2757 25.97 9.38819 23.3634 14.1981C22.1816 16.3787 21.0491 17.0118 18.519 16.7825C12.8442 16.2678 7.56128 20.4684 6.20159 25.9923C4.77644 31.7814 7.55675 37.8037 12.883 40.2528C17.9203 42.5688 22.5276 41.3524 26.8993 38.382C35.1088 32.804 43.3168 27.2237 51.5628 21.7002C59.6028 16.3149 69.3969 19.2931 72.6433 28.3922C75.629 36.7604 69.7908 44.7327 62.6554 46.1404C58.4536 46.9692 54.7803 46.053 51.3169 43.7455C49.0174 42.2141 46.7182 40.6818 44.3923 39.191C43.6375 38.7072 43.4494 38.2714 43.9495 37.4386C46.0192 33.9915 45.9784 34.0046 49.3007 36.2817C51.4316 37.7422 53.5249 39.3065 55.8127 40.4778C60.0032 42.6239 63.8638 41.2712 66.5585 37.9939C69.255 34.7148 68.9748 30.1115 66.0673 26.8654C63.4603 23.9546 58.8276 23.0631 55.3146 25.3059C49.5566 28.981 43.9673 32.9204 38.2889 36.7209C34.5194 39.2441 30.8699 41.9976 26.9019 44.1621C16.4133 49.8828 4.2843 44.6022 1.33853 33.1729C-1.25874 23.0963 5.94631 12.8976 15.8988 11.8713C17.8331 11.6715 19.2993 11.0859 20.6103 9.30249C24.8775 3.49862 30.8566 0.252202 38.0171 0.0141332C47.847 -0.313034 56.8194 5.04819 60.7529 15.2375C60.8115 15.3893 60.7449 15.5896 60.7325 15.8665Z" fill="#011839"/>
</svg>
